<svg width="285" height="34" viewBox="0 0 285 34" fill="none" xmlns="http://www.w3.org/2000/svg">
<path d="M18 33H34V30.414H26.723C24.1287 32.106 21.0973 33.0047 18 33ZM18 27.182C17.1431 27.1809 16.3217 26.8401 15.7158 26.2342C15.1099 25.6283 14.7691 24.8069 14.768 23.95C14.7685 23.0928 15.1091 22.2708 15.7151 21.6645C16.321 21.0582 17.1428 20.7171 18 20.716V13.282C17.1431 13.2809 16.3217 12.9401 15.7158 12.3342C15.1099 11.7283 14.7691 10.9069 14.768 10.05C14.7688 9.19297 15.1095 8.37126 15.7154 7.76515C16.3214 7.15905 17.143 6.81806 18 6.817V1C9.163 1 2 8.163 2 17C2 25.837 9.163 33 18 33V27.182V27.182ZM11.05 20.232C10.1931 20.2309 9.37169 19.8901 8.7658 19.2842C8.15991 18.6783 7.81906 17.8569 7.818 17C7.81906 16.1431 8.15991 15.3217 8.7658 14.7158C9.37169 14.1099 10.1931 13.7691 11.05 13.768C11.9072 13.7685 12.7292 14.1091 13.3355 14.7151C13.9418 15.321 14.2829 16.1428 14.284 17C14.2829 17.8569 13.9421 18.6783 13.3362 19.2842C12.7303 19.8901 11.9089 20.2309 11.052 20.232H11.05Z" fill="#E30B13"/>
<path d="M34 17C34 8.163 26.837 1 18 1V6.818C18.8569 6.81906 19.6783 7.15991 20.2842 7.7658C20.8901 8.37169 21.2309 9.19315 21.232 10.05C21.2315 10.9072 20.8909 11.7292 20.2849 12.3355C19.679 12.9418 18.8572 13.2829 18 13.284V20.718C18.857 20.7191 19.6786 21.0601 20.2846 21.6662C20.8905 22.2723 21.2312 23.094 21.232 23.951C21.2304 24.8075 20.8893 25.6285 20.2835 26.2339C19.6777 26.8394 18.8565 27.1799 18 27.181V33C21.218 33 24.214 32.05 26.723 30.414C31.103 27.56 34 22.618 34 17ZM24.95 13.768C25.8067 13.7693 26.6279 14.1103 27.2336 14.7162C27.8392 15.322 28.1799 16.1433 28.181 17C28.1799 17.8569 27.8391 18.6783 27.2332 19.2842C26.6273 19.8901 25.8059 20.2309 24.949 20.232C24.092 20.2312 23.2703 19.8905 22.6642 19.2846C22.058 18.6786 21.7171 17.857 21.716 17C21.7171 16.143 22.058 15.3214 22.6642 14.7154C23.2703 14.1095 24.092 13.7688 24.949 13.768H24.95Z" fill="#CE080F"/>
<path d="M54.3994 28.3052C51.8929 28.3052 49.8503 27.4914 48.2715 25.8638C46.6927 24.228 45.9033 22.0999 45.9033 19.4795C45.9033 16.7126 46.7049 14.4746 48.3081 12.7656C49.9113 11.0566 52.0353 10.2021 54.6802 10.2021C57.1785 10.2021 59.1968 11.02 60.7349 12.6558C62.2811 14.2915 63.0542 16.4481 63.0542 19.1255C63.0542 21.8761 62.2526 24.0938 60.6494 25.7783C59.0544 27.4629 56.971 28.3052 54.3994 28.3052ZM54.5703 13.5957C53.1868 13.5957 52.0882 14.1165 51.2744 15.1582C50.4606 16.1917 50.0537 17.563 50.0537 19.272C50.0537 21.0054 50.4606 22.3766 51.2744 23.3857C52.0882 24.3949 53.1543 24.8994 54.4727 24.8994C55.8317 24.8994 56.91 24.4111 57.7075 23.4346C58.505 22.4499 58.9038 21.0868 58.9038 19.3452C58.9038 17.5304 58.5173 16.1185 57.7441 15.1094C56.971 14.1003 55.9131 13.5957 54.5703 13.5957ZM81.7188 28H77.7393L70.5249 17.0015C70.1017 16.3586 69.8088 15.8743 69.646 15.5488H69.5972C69.6623 16.1673 69.6948 17.1113 69.6948 18.3809V28H65.9717V10.4951H70.2197L77.1655 21.1519C77.4829 21.632 77.7759 22.1081 78.0444 22.5801H78.0933C78.0282 22.1732 77.9956 21.3716 77.9956 20.1753V10.4951H81.7188V28ZM96.1475 28H85.7227V10.4951H89.6655V24.8018H96.1475V28ZM102.458 28H98.5156V10.4951H102.458V28ZM122.197 28H118.218L111.003 17.0015C110.58 16.3586 110.287 15.8743 110.125 15.5488H110.076C110.141 16.1673 110.173 17.1113 110.173 18.3809V28H106.45V10.4951H110.698L117.644 21.1519C117.961 21.632 118.254 22.1081 118.523 22.5801H118.572C118.507 22.1732 118.474 21.3716 118.474 20.1753V10.4951H122.197V28ZM136.699 28H126.201V10.4951H136.296V13.7056H130.144V17.5996H135.869V20.7979H130.144V24.8018H136.699V28ZM158.965 27.3774C157.687 27.9959 156.019 28.3052 153.96 28.3052C151.274 28.3052 149.163 27.5158 147.625 25.937C146.086 24.3582 145.317 22.2546 145.317 19.626C145.317 16.8265 146.18 14.556 147.905 12.8145C149.639 11.0729 151.885 10.2021 154.644 10.2021C156.353 10.2021 157.793 10.4178 158.965 10.8491V14.6455C157.793 13.9456 156.458 13.5957 154.961 13.5957C153.317 13.5957 151.991 14.1125 150.981 15.146C149.972 16.1795 149.468 17.5793 149.468 19.3452C149.468 21.0379 149.944 22.3888 150.896 23.3979C151.848 24.3989 153.13 24.8994 154.741 24.8994C156.279 24.8994 157.687 24.5251 158.965 23.7764V27.3774ZM165.959 28H162.017V10.4951H165.959V28ZM185.698 28H181.719L174.504 17.0015C174.081 16.3586 173.788 15.8743 173.625 15.5488H173.577C173.642 16.1673 173.674 17.1113 173.674 18.3809V28H169.951V10.4951H174.199L181.145 21.1519C181.462 21.632 181.755 22.1081 182.024 22.5801H182.073C182.008 22.1732 181.975 21.3716 181.975 20.1753V10.4951H185.698V28ZM200.2 28H189.702V10.4951H199.797V13.7056H193.645V17.5996H199.37V20.7979H193.645V24.8018H200.2V28ZM222.954 28H219.06V17.5264C219.06 16.3952 219.109 15.146 219.207 13.7788H219.109C218.905 14.853 218.722 15.6261 218.56 16.0981L214.458 28H211.235L207.061 16.2202C206.947 15.9028 206.764 15.089 206.511 13.7788H206.401C206.507 15.5041 206.56 17.0177 206.56 18.3198V28H203.008V10.4951H208.782L212.358 20.8711C212.643 21.7012 212.851 22.5353 212.981 23.3735H213.054C213.274 22.4051 213.506 21.5628 213.75 20.8467L217.327 10.4951H222.954V28ZM242.327 28H238.03L236.785 24.106H230.559L229.326 28H225.054L231.426 10.4951H236.101L242.327 28ZM235.881 21.0786L234.001 15.1948C233.863 14.7554 233.765 14.2305 233.708 13.6201H233.611C233.57 14.1328 233.468 14.6414 233.306 15.146L231.401 21.0786H235.881Z" fill="white"/>
<path d="M247.2 30.048C248.388 30.048 249.356 29.256 249.356 28.046C249.356 26.814 248.388 26 247.2 26C245.968 26 245 26.814 245 28.046C245 29.256 245.968 30.048 247.2 30.048Z" fill="#E30B13"/>
<path d="M266.687 28H262.158L259.436 23.4956C259.233 23.1538 259.037 22.8486 258.85 22.5801C258.663 22.3115 258.472 22.0837 258.276 21.8965C258.089 21.7012 257.89 21.5547 257.678 21.457C257.475 21.3512 257.251 21.2983 257.007 21.2983H255.945V28H252.002V10.4951H258.252C262.5 10.4951 264.624 12.082 264.624 15.2559C264.624 15.8662 264.53 16.4318 264.343 16.9526C264.156 17.4653 263.892 17.9292 263.55 18.3442C263.208 18.7593 262.793 19.1174 262.305 19.4185C261.825 19.7196 261.287 19.9556 260.693 20.1265V20.1753C260.954 20.2567 261.206 20.391 261.45 20.5781C261.694 20.7572 261.93 20.9688 262.158 21.2129C262.386 21.457 262.602 21.7215 262.805 22.0063C263.017 22.283 263.208 22.5557 263.379 22.8242L266.687 28ZM255.945 13.4492V18.3198H257.654C258.5 18.3198 259.18 18.0757 259.692 17.5874C260.213 17.091 260.474 16.4766 260.474 15.7441C260.474 14.2142 259.558 13.4492 257.727 13.4492H255.945ZM282.605 20.4194C282.605 25.6766 280.155 28.3052 275.256 28.3052C270.504 28.3052 268.127 25.7376 268.127 20.6025V10.4951H272.083V20.6514C272.083 23.4834 273.189 24.8994 275.403 24.8994C277.576 24.8994 278.662 23.5322 278.662 20.7979V10.4951H282.605V20.4194Z" fill="white"/>
</svg>
